<svg xmlns="http://www.w3.org/2000/svg" xmlns:xlink="http://www.w3.org/1999/xlink" width="12" zoomAndPan="magnify" viewBox="0 0 375 374.999991" height="12" preserveAspectRatio="xMidYMid meet" version="1.0"><defs><clipPath id="95e0ccf984"><path d="M 7.078125 7.5625 L 367.078125 7.5625 L 367.078125 367.5625 L 7.078125 367.5625 Z M 7.078125 7.5625 " clip-rule="nonzero"/></clipPath></defs><g clip-path="url(#95e0ccf984)"><path fill="#5e17eb" d="M 187.253906 367.914062 C 87.90625 367.914062 7.078125 287.085938 7.078125 187.738281 C 7.078125 88.390625 87.90625 7.5625 187.253906 7.5625 C 286.605469 7.5625 367.429688 88.390625 367.429688 187.738281 C 367.429688 287.085938 286.605469 367.914062 187.253906 367.914062 Z M 187.253906 367.914062 " fill-opacity="1" fill-rule="nonzero"/></g><path fill="#ffffff" d="M 137.28125 235.539062 C 134.609375 235.539062 131.917969 234.695312 129.636719 232.945312 L 84.253906 198.207031 C 81.179688 195.855469 79.355469 192.21875 79.3125 188.351562 C 79.265625 184.480469 81.003906 180.804688 84.023438 178.382812 L 128.472656 142.710938 C 133.898438 138.351562 141.828125 139.226562 146.179688 144.652344 C 150.535156 150.078125 149.667969 158.007812 144.242188 162.359375 L 112.328125 187.972656 L 144.949219 212.941406 C 150.476562 217.167969 151.523438 225.074219 147.296875 230.597656 C 144.816406 233.839844 141.070312 235.539062 137.28125 235.539062 Z M 137.28125 235.539062 " fill-opacity="1" fill-rule="nonzero"/><path fill="#ffffff" d="M 237.230469 235.539062 C 233.441406 235.539062 229.695312 233.839844 227.214844 230.597656 C 222.984375 225.074219 224.039062 217.167969 229.5625 212.941406 L 262.179688 187.972656 L 230.269531 162.359375 C 224.84375 158.003906 223.972656 150.078125 228.328125 144.652344 C 232.6875 139.226562 240.617188 138.355469 246.039062 142.710938 L 290.488281 178.382812 C 293.507812 180.804688 295.242188 184.480469 295.199219 188.351562 C 295.152344 192.222656 293.332031 195.855469 290.257812 198.207031 L 244.875 232.945312 C 242.589844 234.695312 239.898438 235.539062 237.230469 235.539062 Z M 237.230469 235.539062 " fill-opacity="1" fill-rule="nonzero"/><path fill="#ffffff" d="M 166.773438 259.65625 C 165.683594 259.65625 164.574219 259.515625 163.46875 259.214844 C 156.753906 257.394531 152.785156 250.476562 154.605469 243.757812 L 186.769531 125.121094 C 188.589844 118.40625 195.503906 114.4375 202.222656 116.257812 C 208.9375 118.078125 212.90625 125 211.085938 131.714844 L 178.925781 250.351562 C 177.402344 255.960938 172.320312 259.65625 166.773438 259.65625 Z M 166.773438 259.65625 " fill-opacity="1" fill-rule="nonzero"/></svg>